<svg xmlns="http://www.w3.org/2000/svg" viewBox="0 0 100 100" width="100" height="100">
  <defs>
    <linearGradient id="bgGradient" x1="0%" y1="0%" x2="100%" y2="100%">
      <stop offset="0%" stop-color="#667eea" />
      <stop offset="100%" stop-color="#764ba2" />
    </linearGradient>
    <linearGradient id="iconGradient" x1="0%" y1="0%" x2="100%" y2="100%">
      <stop offset="0%" stop-color="#4facfe" />
      <stop offset="100%" stop-color="#00f2fe" />
    </linearGradient>
  </defs>
  
  <!-- Background circle -->
  <circle cx="50" cy="50" r="45" fill="url(#bgGradient)" stroke="white" stroke-width="2"/>
  
  <!-- GitHub icon base -->
  <path d="M50 15c-19.3 0-35 15.7-35 35 0 15.5 10 28.6 23.9 33.2 1.7.3 2.4-.8 2.4-1.7 0-.8 0-3.4-.1-6.2-9.7 2.1-11.8-4.1-11.8-4.1-1.6-4-3.9-5.1-3.9-5.1-3.2-2.2.2-2.1.2-2.1 3.5.3 5.4 3.6 5.4 3.6 3.1 5.4 8.2 3.8 10.2 2.9.3-2.3 1.2-3.8 2.2-4.7-7.8-.9-16-3.9-16-17.3 0-3.8 1.4-7 3.6-9.4-.4-.9-1.6-4.5.3-9.4 0 0 2.9-.9 9.5 3.6 2.8-.8 5.7-1.1 8.7-1.1s6 .4 8.7 1.1c6.6-4.5 9.5-3.6 9.5-3.6 1.9 4.9.7 8.5.3 9.4 2.2 2.4 3.6 5.6 3.6 9.4 0 13.5-8.2 16.4-16 17.3 1.3 1.1 2.4 3.3 2.4 6.6 0 4.8-.1 8.6-.1 9.8 0 .9.6 2 2.4 1.7C75 78.6 85 65.5 85 50c0-19.3-15.7-35-35-35z" fill="url(#iconGradient)" opacity="0.9"/>
  
  <!-- Labspace elements -->
  <circle cx="25" cy="35" r="3" fill="white" opacity="0.8"/>
  <circle cx="75" cy="35" r="3" fill="white" opacity="0.8"/>
  <circle cx="35" cy="65" r="3" fill="white" opacity="0.8"/>
  <circle cx="65" cy="65" r="3" fill="white" opacity="0.8"/>
  
  <!-- Connection lines -->
  <line x1="25" y1="35" x2="35" y2="65" stroke="white" stroke-width="1" opacity="0.6"/>
  <line x1="75" y1="35" x2="65" y2="65" stroke="white" stroke-width="1" opacity="0.6"/>
  <line x1="35" y1="65" x2="65" y2="65" stroke="white" stroke-width="1" opacity="0.6"/>
</svg>